<svg id="visual" viewBox="0 450 900 150" width="900" height="150" xmlns="http://www.w3.org/2000/svg" xmlns:xlink="http://www.w3.org/1999/xlink" version="1.1"><path d="M0 539L6.8 544.8C13.7 550.7 27.3 562.3 41 556.2C54.7 550 68.3 526 82 520.2C95.7 514.3 109.3 526.7 123 530.2C136.7 533.7 150.3 528.3 164 528.5C177.7 528.7 191.3 534.3 204.8 540.2C218.3 546 231.7 552 245.2 556C258.7 560 272.3 562 286 555C299.7 548 313.3 532 327 526.5C340.7 521 354.3 526 368 523.8C381.7 521.7 395.3 512.3 409 520.2C422.7 528 436.3 553 450 560.8C463.7 568.7 477.3 559.3 491 551C504.7 542.7 518.3 535.3 532 528.8C545.7 522.3 559.3 516.7 573 517.7C586.7 518.7 600.3 526.3 614 530.8C627.7 535.3 641.3 536.7 654.8 538.7C668.3 540.7 681.7 543.3 695.2 540.2C708.7 537 722.3 528 736 521.7C749.7 515.3 763.3 511.7 777 515.2C790.7 518.7 804.3 529.3 818 533C831.7 536.7 845.3 533.3 859 527.5C872.7 521.7 886.3 513.3 893.2 509.2L900 505L900 601L893.2 601C886.3 601 872.7 601 859 601C845.3 601 831.7 601 818 601C804.3 601 790.7 601 777 601C763.3 601 749.7 601 736 601C722.3 601 708.7 601 695.2 601C681.7 601 668.3 601 654.8 601C641.3 601 627.7 601 614 601C600.3 601 586.7 601 573 601C559.3 601 545.7 601 532 601C518.3 601 504.7 601 491 601C477.3 601 463.7 601 450 601C436.3 601 422.7 601 409 601C395.3 601 381.7 601 368 601C354.3 601 340.7 601 327 601C313.3 601 299.7 601 286 601C272.3 601 258.7 601 245.2 601C231.7 601 218.3 601 204.8 601C191.3 601 177.7 601 164 601C150.3 601 136.7 601 123 601C109.3 601 95.7 601 82 601C68.3 601 54.7 601 41 601C27.3 601 13.7 601 6.8 601L0 601Z" fill="#2f119a" stroke-linecap="round" stroke-linejoin="miter"></path></svg>